Coordinates
version=1
nRows=14
nColumns=42
inDegrees=yes

Units are S.I. units (second, meters, Newtons, ...)
If the header above contains a line with 'inDegrees', this indicates whether rotational values are in degrees (yes) or radians (no).

endheader
time	pelvis_tilt	pelvis_list	pelvis_rotation	pelvis_tx	pelvis_ty	pelvis_tz	hip_flexion_r	hip_adduction_r	hip_rotation_r	knee_angle_r	knee_adduction_r	knee_angle_r_beta	ankle_angle_r	subtalar_angle_r	mtp_angle_r	hip_flexion_l	hip_adduction_l	hip_rotation_l	knee_angle_l	knee_adduction_l	knee_angle_l_beta	ankle_angle_l	subtalar_angle_l	mtp_angle_l	lumbar_extension	lumbar_bending	lumbar_rotation	arm_flex_r	arm_add_r	arm_rot_r	elbow_flex_r	pro_sup_r	wrist_flex_r	wrist_dev_r	arm_flex_l	arm_add_l	arm_rot_l	elbow_flex_l	pro_sup_l	wrist_flex_l	wrist_dev_l
      2.43000000	      7.00222542	     -1.83348975	      0.26138690	      0.06386882	      0.89445408	      0.24926736	      0.42153733	     -1.91458922	    -17.41048356	     34.08758767	      7.77195701	      0.59494064	     26.20371861	     25.62742712	     -7.51284998	     28.77776206	     -4.18370742	    -18.67094654	     39.01246114	     -4.62822517	      0.68089590	     12.31480303	      7.19555891	     -7.51284998	    -20.71763601	      7.43353587	      0.85440947	     17.25270412	    -13.33462926	     -8.62685016	     35.48503497	     90.00000001	      0.00000000	      0.00000000	     -5.74486236	     -4.49847118	    -28.63095432	     39.08586854	     90.00000001	      0.00000000	      0.00000000
      2.44000000	      7.36349053	     -1.75650837	      0.25817803	      0.07157056	      0.89433559	      0.24888365	     -0.83630287	     -2.23711965	    -17.75708148	     33.80189576	      8.06704373	      0.58995437	     26.48297219	     26.77520053	     -7.51211556	     28.60392907	     -4.25156997	    -20.89275514	     37.30700506	     -5.21101641	      0.65113007	     13.16413773	     11.74368177	     -7.51211556	    -21.06115868	      7.38131311	      0.78909249	     17.48090781	    -13.44405702	     -7.66514673	     35.91242341	     90.00000001	      0.00000000	      0.00000000	     -5.84366296	     -4.42523904	    -28.84624450	     38.85294324	     90.00000001	      0.00000000	      0.00000000
      2.45000000	      7.15660747	     -1.94120345	      0.40984353	      0.07825762	      0.89288678	      0.24846314	     -1.13821446	     -2.09153254	    -17.76899068	     33.85239240	      8.23089809	      0.59083571	     26.49847779	     26.56827656	     -7.51200024	     29.39436006	     -4.47758744	    -21.19375019	     36.40523175	     -4.84040787	      0.63539116	     13.14768828	     11.79706640	     -7.51200024	    -20.88015994	      7.65287500	      0.70345062	     17.80093081	    -13.39221167	     -7.59719871	     36.23832532	     90.00000001	      0.00000000	      0.00000000	     -5.95280665	     -4.37108328	    -28.78608247	     38.78867716	     90.00000001	      0.00000000	      0.00000000
      2.46000000	      7.49394834	     -1.78532755	      0.44691967	      0.08591343	      0.89283909	      0.24773611	     -2.39716644	     -2.32568419	    -17.45222091	     33.31348350	      8.56947014	      0.58142997	     27.09430933	     26.84098860	     -7.51149586	     28.98845675	     -4.09789084	    -22.74420988	     34.46294750	     -5.33567859	      0.60149190	     13.41268907	     15.58591531	     -7.51149586	    -21.19460418	      7.55782863	      0.62284999	     17.91829609	    -13.48950386	     -6.78315030	     36.70015290	     90.00000001	      0.00000000	      0.00000000	     -5.88736503	     -4.29969212	    -29.02665259	     38.14989745	     90.00000001	      0.00000000	      0.00000000
      2.47000000	      7.31772221	     -1.94961307	      0.60092472	      0.09289691	      0.89141512	      0.24717988	     -2.74567961	     -2.09345822	    -17.26323733	     33.27164812	      8.61570703	      0.58069981	     27.38320041	     26.68915958	     -7.51135839	     29.56875997	     -4.11639688	    -22.93614793	     33.56586185	     -5.13156928	      0.58583481	     13.33521972	     16.05148255	     -7.51135839	    -20.99498305	      7.81532390	      0.50025907	     18.12505571	    -13.42109557	     -6.65561302	     37.02395951	     90.00000001	      0.00000000	      0.00000000	     -5.99872172	     -4.25361630	    -28.99343551	     37.84060722	     90.00000001	      0.00000000	      0.00000000
      2.48000000	      7.53135470	     -1.93638591	      0.61719402	      0.10039815	      0.89074512	      0.24661273	     -3.68014488	     -2.11474512	    -16.83639989	     33.00478123	      8.84949694	      0.57604210	     27.81424168	     26.41772086	     -7.51090851	     29.58281162	     -4.11704876	    -24.45184900	     32.69733238	     -5.42963178	      0.57067611	     13.56628091	     19.36410310	     -7.51090851	    -21.21767555	      7.84102801	      0.52540800	     18.17124658	    -13.54507909	     -5.98994708	     37.56659221	     90.00000001	      0.00000000	      0.00000000	     -5.91086675	     -4.16168066	    -29.23377780	     37.35066904	     90.00000001	      0.00000000	      0.00000000
      2.49000000	      7.45932314	     -2.06849058	      0.77328009	      0.10760721	      0.88937238	      0.24593500	     -4.16978773	     -1.88965608	    -16.52078418	     32.91391366	      8.90452242	      0.57445616	     28.31269994	     26.18622114	     -7.51072109	     30.00616276	     -4.06062522	    -24.70511539	     32.17248321	     -5.36549270	      0.56151576	     13.42333638	     20.13063517	     -7.51072109	    -21.12154655	      8.06079991	      0.43929265	     18.26757425	    -13.52971594	     -5.82670624	     37.91211365	     90.00000001	      0.00000000	      0.00000000	     -5.91319309	     -4.11971411	    -29.23790437	     36.88277158	     90.00000001	      0.00000000	      0.00000000
      2.50000000	      7.41111785	     -2.18426154	      0.87706380	      0.11490461	      0.88793610	      0.24535526	     -4.61800731	     -1.73005341	    -16.31968422	     32.99537581	      8.92650575	      0.57587795	     28.47031072	     26.09839714	     -7.51067540	     30.38895911	     -4.04243143	    -24.99304188	     31.92815485	     -5.28816818	      0.55725143	     13.38783202	     20.44997057	     -7.51067540	    -21.05821552	      8.22757075	      0.32740550	     18.40966032	    -13.42753416	     -5.73570923	     38.20427618	     90.00000001	      0.00000000	      0.00000000	     -6.04124314	     -4.06353504	    -29.26694912	     36.63562967	     90.00000001	      0.00000000	      0.00000000
      2.51000000	      7.56431954	     -2.30556505	      0.83409506	      0.12266540	      0.88694140	      0.24493650	     -5.45980044	     -1.46497320	    -15.45988462	     32.67434582	      9.10327132	      0.57027492	     28.82818620	     25.04515698	     -7.51023611	     30.50013402	     -4.22081073	    -26.35009042	     31.87804066	     -5.66667628	      0.55637677	     13.59738495	     23.38056956	     -7.51023611	    -21.19913179	      8.36096257	      0.51547225	     18.22925582	    -13.63141904	     -5.11208031	     38.83665854	     90.00000001	      0.00000000	      0.00000000	     -5.91009075	     -3.94703033	    -29.58733339	     36.07395239	     90.00000001	      0.00000000	      0.00000000
      2.52000000	      7.52946281	     -2.37247366	      0.91731854	      0.13026304	      0.88543476	      0.24433946	     -5.91966181	     -1.34947035	    -15.28778616	     32.80570890	      9.05114886	      0.57256763	     28.90585288	     25.03399760	     -7.51021847	     30.73539115	     -4.08234241	    -26.42278978	     31.89032025	     -5.64170236	      0.55659109	     13.57301287	     23.43705409	     -7.51021847	    -21.10913802	      8.43819722	      0.48314419	     18.25332937	    -13.55639291	     -5.09411112	     38.93213926	     90.00000001	      0.00000000	      0.00000000	     -6.04445737	     -3.90431296	    -29.59966746	     35.91800010	     90.00000001	      0.00000000	      0.00000000
      2.53000000	      7.58093413	     -2.50834236	      1.06804451	      0.13814411	      0.88403785	      0.24359376	     -6.67169546	     -1.13918300	    -14.95746912	     32.59435226	      9.20501292	      0.56887876	     29.56491700	     24.67234490	     -7.51009177	     30.96364319	     -4.03221181	    -26.87427710	     32.24935066	     -5.96082095	      0.56285735	     13.50432849	     24.06388387	     -7.51009177	    -21.09495163	      8.62612729	      0.45000000	     18.05703421	    -13.59153341	     -4.98877010	     39.42556035	     90.00000001	      0.00000000	      0.00000000	     -5.95465693	     -3.89071415	    -29.70271816	     35.22128990	     90.00000001	      0.00000000	      0.00000000
      2.54000000	      7.55318055	     -2.55433748	      1.06664449	      0.14599479	      0.88255175	      0.24306203	     -7.13381717	     -1.04293234	    -14.73923844	     32.73754086	      9.10166427	      0.57137788	     29.58999198	     24.65031822	     -7.51007744	     31.00967286	     -3.84838340	    -26.86546333	     32.39143926	     -5.99998442	      0.56533726	     13.49427117	     24.14575040	     -7.51007744	    -21.00477735	      8.65346063	      0.48321855	     18.01032170	    -13.49635412	     -4.95947055	     39.48985002	     90.00000001	      0.00000000	      0.00000000	     -6.11852151	     -3.82224891	    -29.72947608	     35.07020413	     90.00000001	      0.00000000	      0.00000000
      2.55000000	      7.78330312	     -2.75181146	      1.05257429	      0.15419981	      0.88155336	      0.24276545	     -8.14564441	     -0.65719839	    -14.01712317	     32.30844591	      9.20789168	      0.56388876	     29.83112920	     23.74885221	     -7.50972183	     30.91292757	     -4.07697081	    -27.64362144	     33.06957918	     -6.39354373	      0.57717304	     13.74363069	     25.59467480	     -7.50972183	    -21.20520207	      8.81786392	      0.66696501	     17.72610809	    -13.56157274	     -4.72058501	     40.08036299	     90.00000001	      0.00000000	      0.00000000	     -5.93476081	     -3.78286940	    -30.15775565	     34.37779389	     90.00000001	      0.00000000	      0.00000000
      2.56000000	      7.83597119	     -2.76403821	      1.10160122	      0.16242114	      0.88018117	      0.24211138	     -8.79890436	     -0.65325221	    -13.94921727	     32.38169300	      9.19311316	      0.56516716	     29.96634506	     23.64381892	     -7.50966369	     30.85500935	     -3.85030786	    -27.72764076	     33.55367958	     -6.64418634	      0.58562218	     13.71455866	     25.55469658	     -7.50966369	    -21.17447961	      8.79992371	      0.64099015	     17.57586991	    -13.46715927	     -4.71932584	     40.14267930	     90.00000001	      0.00000000	      0.00000000	     -6.03999444	     -3.77121455	    -30.20544442	     34.08047036	     90.00000001	      0.00000000	      0.00000000
